<svg width="1500" height="1500" style="position:relative;width:1500px;height:1500px;margin:auto;user-select:none;cursor:default" xmlns="http://www.w3.org/2000/svg" viewBox="0 0 1500 1500"><defs><linearGradient id="a" x1="0%" y1="0%" x2="100%" y2="100%"><stop offset="5%" style="stop-color:#bb10ff;stop-opacity:1"/><stop offset="50%" style="stop-color:#dd202e;stop-opacity:1"/><stop offset="100%" style="stop-color:#bb10ff;stop-opacity:1"/></linearGradient></defs><path fill="url(#a)" fill-rule="evenodd" d="M449.748 349.752 350 449.504V750H250v100h100v400.496l100-99.996 100-99.996V450h200.504L850.5 350l99.996-100h-401zm598.528 1.506L947.053 452.5l-48.527 78.162L850 608.824v282.35l49.304 79.163 49.304 79.163 100.696 100.493L1150 1250.486v-201.583l-79.25-148.695c-43.588-81.783-79.25-149.384-79.25-150.224s35.665-68.406 79.255-150.144l79.255-148.615-.255-100.605-.255-100.605zM650 600v50h100V550H650zM350 800v50h100V750H350z"/></svg>